<svg xmlns="http://www.w3.org/2000/svg" viewBox="0 0 800 400" role="img" aria-labelledby="title desc"><title id="title">Minimum coins: denominations [1, 3, 4]</title><desc id="desc">Minimum coins: denominations [1, 3, 4]. Amount 6 uses 3+3, beating greedy 4+1+1. dp[0]=0; impossible states use a sentinel.</desc><defs><marker id="arrow" viewBox="0 0 10 10" refX="9" refY="5" markerWidth="6" markerHeight="6" orient="auto-start-reverse"><path d="M 0 0 L 10 5 L 0 10 z" fill="#386450"/></marker></defs><rect width="800" height="400" rx="16" fill="#f0f5ed"/><style>text{font-family:Arial,sans-serif;fill:#183b30}.title{font-size:19px;font-weight:700}.small{font-size:12px;fill:#567064}.label{font-size:14px;font-weight:700}.body{font-size:13px;fill:#40584d}</style><text x="30" y="37" class="title">Minimum coins: denominations [1, 3, 4]</text><rect x="30.0" y="77" width="92.5" height="46" fill="#d6eec2" stroke="#cfdecb"/><text x="40.0" y="105.0" class="label">Amount</text><rect x="122.5" y="77" width="92.5" height="46" fill="#d6eec2" stroke="#cfdecb"/><text x="132.5" y="105.0" class="label">0</text><rect x="215.0" y="77" width="92.5" height="46" fill="#d6eec2" stroke="#cfdecb"/><text x="225.0" y="105.0" class="label">1</text><rect x="307.5" y="77" width="92.5" height="46" fill="#d6eec2" stroke="#cfdecb"/><text x="317.5" y="105.0" class="label">2</text><rect x="400.0" y="77" width="92.5" height="46" fill="#d6eec2" stroke="#cfdecb"/><text x="410.0" y="105.0" class="label">3</text><rect x="492.5" y="77" width="92.5" height="46" fill="#d6eec2" stroke="#cfdecb"/><text x="502.5" y="105.0" class="label">4</text><rect x="585.0" y="77" width="92.5" height="46" fill="#d6eec2" stroke="#cfdecb"/><text x="595.0" y="105.0" class="label">5</text><rect x="677.5" y="77" width="92.5" height="46" fill="#d6eec2" stroke="#cfdecb"/><text x="687.5" y="105.0" class="label">6</text><rect x="30.0" y="123" width="92.5" height="46" fill="#fff" stroke="#cfdecb"/><text x="40.0" y="151.0" class="body">Min coins</text><rect x="122.5" y="123" width="92.5" height="46" fill="#fff" stroke="#cfdecb"/><text x="132.5" y="151.0" class="body">0</text><rect x="215.0" y="123" width="92.5" height="46" fill="#fff" stroke="#cfdecb"/><text x="225.0" y="151.0" class="body">1</text><rect x="307.5" y="123" width="92.5" height="46" fill="#fff" stroke="#cfdecb"/><text x="317.5" y="151.0" class="body">2</text><rect x="400.0" y="123" width="92.5" height="46" fill="#fff" stroke="#cfdecb"/><text x="410.0" y="151.0" class="body">1</text><rect x="492.5" y="123" width="92.5" height="46" fill="#fff" stroke="#cfdecb"/><text x="502.5" y="151.0" class="body">1</text><rect x="585.0" y="123" width="92.5" height="46" fill="#fff" stroke="#cfdecb"/><text x="595.0" y="151.0" class="body">2</text><rect x="677.5" y="123" width="92.5" height="46" fill="#fff" stroke="#cfdecb"/><text x="687.5" y="151.0" class="body">2</text><text x="30" y="380" class="small">Amount 6 uses 3+3, beating greedy 4+1+1. dp[0]=0; impossible states use a sentinel.</text></svg>