<svg xmlns="http://www.w3.org/2000/svg" viewBox="0 0 800 400" role="img" aria-labelledby="title desc"><title id="title">Edit-distance table for cat to cut</title><desc id="desc">Edit-distance table for cat to cut. Each cell compares prefixes. The final answer 1 replaces a with u.</desc><defs><marker id="arrow" viewBox="0 0 10 10" refX="9" refY="5" markerWidth="6" markerHeight="6" orient="auto-start-reverse"><path d="M 0 0 L 10 5 L 0 10 z" fill="#386450"/></marker></defs><rect width="800" height="400" rx="16" fill="#f0f5ed"/><style>text{font-family:Arial,sans-serif;fill:#183b30}.title{font-size:19px;font-weight:700}.small{font-size:12px;fill:#567064}.label{font-size:14px;font-weight:700}.body{font-size:13px;fill:#40584d}</style><text x="30" y="37" class="title">Edit-distance table for cat to cut</text><rect x="30.0" y="77" width="148.0" height="46" fill="#d6eec2" stroke="#cfdecb"/><text x="40.0" y="105.0" class="label">Source / target</text><rect x="178.0" y="77" width="148.0" height="46" fill="#d6eec2" stroke="#cfdecb"/><text x="188.0" y="105.0" class="label">empty</text><rect x="326.0" y="77" width="148.0" height="46" fill="#d6eec2" stroke="#cfdecb"/><text x="336.0" y="105.0" class="label">c</text><rect x="474.0" y="77" width="148.0" height="46" fill="#d6eec2" stroke="#cfdecb"/><text x="484.0" y="105.0" class="label">cu</text><rect x="622.0" y="77" width="148.0" height="46" fill="#d6eec2" stroke="#cfdecb"/><text x="632.0" y="105.0" class="label">cut</text><rect x="30.0" y="123" width="148.0" height="46" fill="#fff" stroke="#cfdecb"/><text x="40.0" y="151.0" class="body">empty</text><rect x="178.0" y="123" width="148.0" height="46" fill="#fff" stroke="#cfdecb"/><text x="188.0" y="151.0" class="body">0</text><rect x="326.0" y="123" width="148.0" height="46" fill="#fff" stroke="#cfdecb"/><text x="336.0" y="151.0" class="body">1</text><rect x="474.0" y="123" width="148.0" height="46" fill="#fff" stroke="#cfdecb"/><text x="484.0" y="151.0" class="body">2</text><rect x="622.0" y="123" width="148.0" height="46" fill="#fff" stroke="#cfdecb"/><text x="632.0" y="151.0" class="body">3</text><rect x="30.0" y="169" width="148.0" height="46" fill="#fff" stroke="#cfdecb"/><text x="40.0" y="197.0" class="body">c</text><rect x="178.0" y="169" width="148.0" height="46" fill="#fff" stroke="#cfdecb"/><text x="188.0" y="197.0" class="body">1</text><rect x="326.0" y="169" width="148.0" height="46" fill="#fff" stroke="#cfdecb"/><text x="336.0" y="197.0" class="body">0</text><rect x="474.0" y="169" width="148.0" height="46" fill="#fff" stroke="#cfdecb"/><text x="484.0" y="197.0" class="body">1</text><rect x="622.0" y="169" width="148.0" height="46" fill="#fff" stroke="#cfdecb"/><text x="632.0" y="197.0" class="body">2</text><rect x="30.0" y="215" width="148.0" height="46" fill="#fff" stroke="#cfdecb"/><text x="40.0" y="243.0" class="body">ca</text><rect x="178.0" y="215" width="148.0" height="46" fill="#fff" stroke="#cfdecb"/><text x="188.0" y="243.0" class="body">2</text><rect x="326.0" y="215" width="148.0" height="46" fill="#fff" stroke="#cfdecb"/><text x="336.0" y="243.0" class="body">1</text><rect x="474.0" y="215" width="148.0" height="46" fill="#fff" stroke="#cfdecb"/><text x="484.0" y="243.0" class="body">1</text><rect x="622.0" y="215" width="148.0" height="46" fill="#fff" stroke="#cfdecb"/><text x="632.0" y="243.0" class="body">2</text><rect x="30.0" y="261" width="148.0" height="46" fill="#fff" stroke="#cfdecb"/><text x="40.0" y="289.0" class="body">cat</text><rect x="178.0" y="261" width="148.0" height="46" fill="#fff" stroke="#cfdecb"/><text x="188.0" y="289.0" class="body">3</text><rect x="326.0" y="261" width="148.0" height="46" fill="#fff" stroke="#cfdecb"/><text x="336.0" y="289.0" class="body">2</text><rect x="474.0" y="261" width="148.0" height="46" fill="#fff" stroke="#cfdecb"/><text x="484.0" y="289.0" class="body">2</text><rect x="622.0" y="261" width="148.0" height="46" fill="#fff" stroke="#cfdecb"/><text x="632.0" y="289.0" class="body">1</text><text x="30" y="380" class="small">Each cell compares prefixes. The final answer 1 replaces a with u.</text></svg>